<?xml version="1.0" encoding="utf-8"?>
<!-- Generator: Adobe Illustrator 15.1.0, SVG Export Plug-In  -->
<!DOCTYPE svg PUBLIC "-//W3C//DTD SVG 1.1//EN" "http://www.w3.org/Graphics/SVG/1.1/DTD/svg11.dtd" [
	<!ENTITY ns_flows "http://ns.adobe.com/Flows/1.0/">
]>
<svg version="1.1"
	 xmlns="http://www.w3.org/2000/svg" xmlns:xlink="http://www.w3.org/1999/xlink" xmlns:a="http://ns.adobe.com/AdobeSVGViewerExtensions/3.0/"
	 x="0px" y="0px" width="440px" height="69px" viewBox="483 17.309 440 69"
	 overflow="visible" enable-background="new 483 17.309 440 69" xml:space="preserve">
<defs>
</defs>
<g>
	<path fill-rule="evenodd" clip-rule="evenodd" fill="#E2E2E2" d="M940,95c0,2.762-2.238,5-5,5H5c-2.762,0-5-2.238-5-5V5
		c0-2.761,2.238-5,5-5h930c2.762,0,5,2.239,5,5V95z"/>
</g>
<g>
	<linearGradient id="SVGID_1_" gradientUnits="userSpaceOnUse" x1="703" y1="14.834" x2="703" y2="86.1794">
		<stop  offset="0" style="stop-color:#9DA8BF"/>
		<stop  offset="1" style="stop-color:#7C90AD"/>
	</linearGradient>
	<path fill-rule="evenodd" clip-rule="evenodd" fill="url(#SVGID_1_)" d="M923,82c0,2.762-2.238,5-5,5H488c-2.762,0-5-2.238-5-5V21
		c0-2.762,2.238-5,5-5h430c2.762,0,5,2.238,5,5V82z"/>
</g>
<g id="XMLID_4_">
	<g>
		<path fill="#FFFFFF" d="M530.935,38.95c2.96-2.311,5.99,2.38,3.31,4.229C533.404,41.51,532.444,39.96,530.935,38.95z"/>
		<path fill="#FFFFFF" d="M531.125,31.96c-1.591,0.12-3.551-2.96-0.921-3.86C533.694,26.89,533.414,31.78,531.125,31.96z"/>
		<path fill="#FFFFFF" d="M526.895,56.61c0.8-0.301,2.17,1.909,2.39,3.5c0.4,2.88-0.87,5.97-2.949,6.62
			C526.845,63.67,527.364,60.09,526.895,56.61z"/>
		<path fill="#FF4703" d="M523.395,41.34c4.33-1.28,3.82,4.63,1.1,4.78C522.354,46.25,520.635,42.16,523.395,41.34z"/>
		<path fill="#FFFFFF" d="M523.395,73.35c0.32-2.71,5.19-2.159,5.15,0.551c-1.591,0.43-3.98,0.06-5.891,0.189
			c0.04-0.149,0.19-0.189,0.19-0.37C523.085,73.65,523.135,73.39,523.395,73.35z"/>
		<path fill="#FFFFFF" d="M525.414,55.14c1.101,7.48-0.21,15.551-4.6,18.761c-0.8,0.31-2.87,0.31-3.67,0
			c-4.6-3.261-5.55-11.261-4.79-18.761C516.324,56.16,521.484,56.27,525.414,55.14z"/>
		<path fill="#FFFFFF" d="M511.435,43.18c-0.49,3.46,5.33,4.261,4.6-0.55c-0.409-0.45-0.84-0.87-1.29-1.29
			C512.635,41.15,511.635,41.8,511.435,43.18z M533.324,44.84c0.62,6.391-6.239,9.08-12.51,9.75c-0.8,0.3-2.87,0.3-3.67,0
			c-5.83-0.67-11.75-2.71-12.51-7.91c-0.98-6.68,6.2-9.52,12.51-10.12c0.8-0.31,2.87-0.31,3.67,0
			C526.664,37.32,532.795,39.29,533.324,44.84z M524.494,46.12c2.721-0.15,3.23-6.061-1.1-4.78
			C520.635,42.16,522.354,46.25,524.494,46.12z M513.274,50.17c1.59,2.9,11.08,2.92,11.41-0.55c-1.51,0.35-3.5,1.52-5.89,1.47
			c-2.141-0.04-3.73-0.81-5.15-1.649C513.645,49.8,513.145,49.67,513.274,50.17z"/>
		<path fill="#FF4703" d="M511.435,43.18c0.2-1.38,1.2-2.029,3.31-1.84c0.45,0.42,0.881,0.84,1.29,1.29
			C516.765,47.44,510.944,46.64,511.435,43.18z"/>
		<path d="M524.685,49.62c-0.33,3.47-9.82,3.45-11.41,0.55c-0.13-0.5,0.37-0.37,0.37-0.729c1.42,0.84,3.01,1.609,5.15,1.649
			C521.185,51.14,523.175,49.97,524.685,49.62z"/>
		<path fill="#FFFFFF" d="M509.414,73.9c0.08-2.99,4.95-3.021,5.33-0.36c1.181,0.82-1.439,0.49-2.199,0.55
			C511.555,73.97,510.095,74.33,509.414,73.9z"/>
		<path fill="#FFFFFF" d="M511.625,66.73c-3.631-0.91-4.011-8.881-0.561-10.301C510.564,59.84,511.015,63.82,511.625,66.73z"/>
		<path fill="#FFFFFF" d="M503.895,43c-2.76-1.56,0.14-6.24,3.13-4.23C505.744,39.94,504.475,41.12,503.895,43z"/>
		<path d="M514.744,73.54c-0.38-2.66-5.25-2.63-5.33,0.36c0.681,0.43,2.141,0.069,3.131,0.189
			C513.305,74.03,515.925,74.36,514.744,73.54z M511.625,66.73c-0.61-2.91-1.061-6.891-0.561-10.301
			C507.614,57.85,507.994,65.82,511.625,66.73z M534.244,43.18c2.681-1.85-0.35-6.54-3.31-4.229
			C532.444,39.96,533.404,41.51,534.244,43.18z M526.335,66.73c2.079-0.65,3.35-3.74,2.949-6.62c-0.22-1.591-1.59-3.801-2.39-3.5
			C527.364,60.09,526.845,63.67,526.335,66.73z M530.204,28.1c-2.63,0.9-0.67,3.98,0.921,3.86
			C533.414,31.78,533.694,26.89,530.204,28.1z M507.024,38.77c-2.99-2.01-5.89,2.671-3.13,4.23
			C504.475,41.12,505.744,39.94,507.024,38.77z M520.814,54.59c6.271-0.67,13.13-3.359,12.51-9.75c-0.529-5.55-6.66-7.52-12.51-8.28
			c-0.8-0.31-2.87-0.31-3.67,0c-6.31,0.601-13.49,3.44-12.51,10.12c0.76,5.2,6.68,7.24,12.51,7.91
			C517.944,54.89,520.015,54.89,520.814,54.59z M527.255,29.75c-1.83-0.31-3.32-0.97-5.33-1.1c-0.61,2.27-1.4,4.359-2.03,6.619
			c4.19-0.02,7.16,1.19,9.76,2.761c3.221-2.25,7.271-0.061,6.8,3.68c-0.199,1.58-1.199,1.86-2.02,3.13
			c0.44,5.59-3.92,7.97-7.73,9.93c3.601,1.391,5.051,6.98,2.95,10.671c-1.24,2.159-4.41,2.43-4.6,4.97
			c3.26-0.42,5.8,2.32,4.229,4.96c-6.87,0-13.739,0-20.609,0c-0.04-0.26-0.3-0.3-0.37-0.55c-0.851-3.19,2.09-4.16,4.42-4.78
			c-0.54-2.33-3.21-2.56-4.42-4.78c-2.061-3.819-0.53-9,2.95-10.67c-2.95-1.17-6.36-2.93-7.54-6.81c-0.301-0.96-0.07-2.16-0.37-3.13
			c-0.45-1.431-1.86-1.96-1.84-3.681c0.04-3.17,3.63-5.029,6.8-2.939c2.57-1.73,5.81-2.78,10.12-2.761
			c1.37-2.369,1.439-6.039,3.13-8.09c2.1,0.471,4.189,0.96,6.26,1.471c1.07-1.2,1.5-2.04,3.12-2.03c3.92,0.04,4.61,7.31-0.73,6.439
			C528.364,32.77,528.255,31.2,527.255,29.75z M520.814,73.9c4.39-3.21,5.7-11.28,4.6-18.761c-3.93,1.13-9.09,1.021-13.06,0
			c-0.76,7.5,0.19,15.5,4.79,18.761C517.944,74.21,520.015,74.21,520.814,73.9z M528.545,73.9c0.04-2.71-4.83-3.261-5.15-0.551
			c-0.26,0.04-0.31,0.301-0.55,0.37c0,0.181-0.15,0.221-0.19,0.37C524.564,73.96,526.954,74.33,528.545,73.9z"/>
	</g>
	<g>
	</g>
</g>
<path fill-rule="evenodd" clip-rule="evenodd" fill="#F2F3F3" d="M768.428,41.002c-0.128-1.727,2.834-1.492,2.64,0.12
	c0,5.921,0,11.841,0,17.761c-0.003,1.578-2.688,1.754-2.64,0c-1.036,0.691-1.75,1.291-3.24,1.32c-4.117,0.078-6.31-3.34-6.36-7.08
	c-0.063-4.727,3.88-9.344,9-6.361c0.154,0.207,0.248,0.473,0.601,0.48C768.428,45.162,768.428,43.082,768.428,41.002z
	 M766.987,48.682c-4.771-3.404-7.384,6.152-3.84,8.641c1.617,1.135,3.427,0.498,4.44-0.84
	C769.119,54.459,769.061,50.162,766.987,48.682z"/>
<path fill-rule="evenodd" clip-rule="evenodd" fill="#F2F3F3" d="M782.707,41.002c-0.115-1.668,2.711-1.504,2.641,0
	c0,5.961,0,11.92,0,17.881c-0.003,1.578-2.689,1.754-2.641,0c-1.017,0.709-1.752,1.291-3.239,1.32
	c-4.097,0.078-6.333-3.338-6.36-7.08c-0.036-4.844,4.405-9.461,9-6.361c0.154,0.207,0.248,0.473,0.6,0.48
	C782.707,45.162,782.707,43.082,782.707,41.002z M777.428,57.322c1.361,0.955,3.11,0.611,4.08-0.24
	c2.645-2.326,1.631-9.547-2.641-8.879C775.369,48.75,774.761,55.451,777.428,57.322z"/>
<path fill-rule="evenodd" clip-rule="evenodd" fill="#F2F3F3" d="M789.188,39.803c1.564-0.066,3.201,1.273,2.52,3.359
	c-0.8,2.451-5.087,1.744-4.8-1.199C787.016,40.852,787.672,39.867,789.188,39.803z M790.627,42.322
	c0.054-2.148-3.728-1.119-2.159,0.721C789.355,44.084,790.607,43.105,790.627,42.322z"/>
<path fill-rule="evenodd" clip-rule="evenodd" fill="#F2F3F3" d="M785.348,41.002c0.199,5.68,0.199,12.201,0,17.881
	C785.348,52.922,785.348,46.963,785.348,41.002z"/>
<path fill-rule="evenodd" clip-rule="evenodd" fill="#F2F3F3" d="M771.067,41.122c0.2,5.64,0.2,12.12,0,17.761
	C771.067,52.963,771.067,47.043,771.067,41.122z"/>
<path fill-rule="evenodd" clip-rule="evenodd" fill="#F2F3F3" d="M794.947,42.922c-0.045-1.568,2.762-1.348,2.641,0.121
	c0,0.92,0,1.84,0,2.76c0.051,0.268,0.591,0.049,0.84,0.119c1.872,0.1,1.305,2.922-0.721,2.4c-0.04,0-0.08,0-0.119,0
	c0,3.52,0,7.041,0,10.561c0.018,1.559-2.745,1.809-2.641,0c-0.08-3.48,0.16-7.279-0.12-10.561c-2.469,0.52-2.687-2.99,0-2.4
	c0.04,0,0.08,0,0.12,0C794.947,44.922,794.947,43.922,794.947,42.922z"/>
<path fill-rule="evenodd" clip-rule="evenodd" fill="#F2F3F3" d="M794.827,45.922c0.079-0.961-0.158-2.238,0.12-3c0,1,0,2,0,3
	C794.907,45.922,794.867,45.922,794.827,45.922z"/>
<path fill-rule="evenodd" clip-rule="evenodd" fill="#F2F3F3" d="M738.067,47.123c-0.009-1.842,2.975-1.623,2.64,0.359
	c0.438-0.939,4.5-3.262,4.32,0.24c-1.285,1.314-4.203,0.996-4.2,3.6c-0.279,2.281-0.04,5.08-0.12,7.561
	c0.029,1.658-2.674,1.695-2.64,0C738.067,54.963,738.067,51.043,738.067,47.123z"/>
<path fill-rule="evenodd" clip-rule="evenodd" fill="#F2F3F3" d="M748.027,54.562c0.224,2.486,2.533,3.762,5.16,3.119
	c1.01-0.246,2.562-1.877,3.479-1.559c2.327,0.805-0.89,3.09-1.8,3.479c-0.878,0.377-2.052,0.586-3,0.602
	c-9.123,0.141-8.6-15.354,0.36-14.4c1.977,0.211,3.359,1.275,4.319,2.76c1.041,1.609,2.123,5.459-0.239,5.52
	c-2.761,0.08-5.84-0.16-8.4,0.121C747.896,54.373,747.888,54.543,748.027,54.562z M754.867,51.082c-0.186-4.1-7.185-3.715-6.84,0.6
	c-0.062-0.068-0.18,0.221-0.12,0.24c1.804,0.611,4.992-0.451,7.08,0C754.916,51.674,755.136,51.135,754.867,51.082z"/>
<path fill-rule="evenodd" clip-rule="evenodd" fill="#F2F3F3" d="M788.107,46.762c0.177-1.396,2.68-1.188,2.52,0.361
	c0,3.92,0,7.84,0,11.76c0.067,1.59-2.505,1.723-2.52,0.119C788.107,54.922,788.107,50.842,788.107,46.762z"/>
<path fill-rule="evenodd" clip-rule="evenodd" fill="#F2F3F3" d="M788.107,59.002c-0.2-3.799-0.2-8.439,0-12.24
	C788.107,50.842,788.107,54.922,788.107,59.002z"/>
<path fill-rule="evenodd" clip-rule="evenodd" fill="#F2F3F3" d="M738.067,58.883c-0.2-3.641-0.2-8.121,0-11.76
	C738.067,51.043,738.067,54.963,738.067,58.883z"/>
<path fill-rule="evenodd" clip-rule="evenodd" fill="#F2F3F3" d="M790.627,47.123c0.2,3.639,0.2,8.119,0,11.76
	C790.627,54.963,790.627,51.043,790.627,47.123z"/>
<path fill-rule="evenodd" clip-rule="evenodd" fill="#F2F3F3" d="M794.827,48.322c0.28,3.281,0.04,7.08,0.12,10.561
	C794.668,55.602,794.907,51.803,794.827,48.322z"/>
<path fill-rule="evenodd" clip-rule="evenodd" fill="#F2F3F3" d="M797.707,48.322c-0.08,3.48,0.16,7.279-0.119,10.561
	c0-3.52,0-7.041,0-10.561C797.627,48.322,797.667,48.322,797.707,48.322z"/>
<path fill-rule="evenodd" clip-rule="evenodd" fill="#F2F3F3" d="M782.107,46.762c0.709,1.047,0.48-1.244,0.48-2.76
	c0-1.293-0.09-2.564,0.119-3c0,2.08,0,4.16,0,6.24C782.355,47.234,782.262,46.969,782.107,46.762z"/>
<path fill-rule="evenodd" clip-rule="evenodd" fill="#F2F3F3" d="M767.827,46.762c0.709,1.047,0.48-1.244,0.48-2.76
	c0-1.293-0.09-2.564,0.12-3c0,2.08,0,4.16,0,6.24C768.075,47.234,767.981,46.969,767.827,46.762z"/>
<path fill-rule="evenodd" clip-rule="evenodd" fill="#F2F3F3" d="M797.588,43.043c0.479,0.76-0.515,2.994,0.84,2.879
	c-0.249-0.07-0.789,0.148-0.84-0.119C797.588,44.883,797.588,43.963,797.588,43.043z"/>
<path fill-rule="evenodd" clip-rule="evenodd" fill="#F2F3F3" d="M754.867,51.082c0.269,0.053,0.049,0.592,0.12,0.84
	c-2.088-0.451-5.276,0.611-7.08,0c-0.06-0.02,0.059-0.309,0.12-0.24c2.04,0.281,4.6,0.041,6.84,0.121
	C754.867,51.562,754.867,51.322,754.867,51.082z"/>
<path fill-rule="evenodd" clip-rule="evenodd" fill="#F2F3F3" d="M740.827,51.322c-0.08,2.48,0.16,5.279-0.12,7.561
	C740.787,56.402,740.548,53.604,740.827,51.322z"/>
<path fill-rule="evenodd" clip-rule="evenodd" fill="#F2F3F3" d="M748.027,54.562c-0.14-0.02-0.131-0.189-0.12-0.359
	c2.561-0.281,5.64-0.041,8.4-0.121c-2.521,0.281-5.561,0.041-8.28,0.121C748.027,54.322,748.027,54.443,748.027,54.562z"/>
<rect x="542" y="41.584" fill-rule="evenodd" clip-rule="evenodd" fill="none" width="391.834" height="33.92"/>
<text transform="matrix(1 0 0 1 542 59.4336)" fill="#E2E2E2" font-family="'HelveticaNeueLTStd-Roman'" font-size="25">Sign in with your            account</text>
</svg>
