<?xml version="1.0" encoding="utf-8"?>
<!-- Generator: Adobe Illustrator 15.1.0, SVG Export Plug-In  -->
<!DOCTYPE svg PUBLIC "-//W3C//DTD SVG 1.1//EN" "http://www.w3.org/Graphics/SVG/1.1/DTD/svg11.dtd" [
	<!ENTITY ns_flows "http://ns.adobe.com/Flows/1.0/">
]>
<svg version="1.1"
	 xmlns="http://www.w3.org/2000/svg" xmlns:xlink="http://www.w3.org/1999/xlink" xmlns:a="http://ns.adobe.com/AdobeSVGViewerExtensions/3.0/"
	 x="0px" y="0px" width="43px" height="70px" viewBox="-2.25 -1.691 43 70"
	 overflow="visible" enable-background="new -2.25 -1.691 43 70" xml:space="preserve">
<defs>
</defs>
<linearGradient id="SVGID_1_" gradientUnits="userSpaceOnUse" x1="-1.7822" y1="-0.9448" x2="44.9015" y2="94.3847">
	<stop  offset="0" style="stop-color:#2E45A6"/>
	<stop  offset="1" style="stop-color:#000000"/>
</linearGradient>
<path fill-rule="evenodd" clip-rule="evenodd" fill="url(#SVGID_1_)" d="M38.846,62.426c0-0.36-0.119-0.497-0.196-0.885
	c-1.701-1.318-4.374-1.667-7.119-1.941c0.388-2.775,0.926-5.401,1.079-8.412c3.062-2.834,4.203-10.687-1.295-11.646
	c-0.475-1.682-1.676-2.638-2.372-4.098c2.773-1.665,7.771-5.789,6.472-11.217c-0.312-1.305-2.293-2.375-2.373-3.452
	c-0.002-0.028,0.793-1.044,0.863-1.51c0.679-4.588-5.568-4.291-6.058-1.725c-1.176-0.767-2.07-0.701-3.886-1.379
	c-4.532-0.543-4.409-0.264-6.881-0.562c0.662-2.341-0.797-4.359-0.432-7.118c1.504-0.653,2.778-1.535,4.53-1.941
	c3.417,4.118,9.748-2.656,6.039-6.371C26.963,0.136,25.347,0,25.823,0c-0.719,0-0.452,0-1.318,0c-1.358,0-2.847,1.083-3.758,2.111
	c0.039,1.397,0.843,0.908,0.432,2.43c-1.81,0.707-3.566,1.387-5.608,1.862c-1.731,2.32-0.335,6.226-0.432,9.451
	c-4.667,0.078-7.672,1.797-10.784,3.43c0.14-1.003-0.973-0.762-1.294-1.303c-2.768-0.358-3.994,3.968-1.638,4.956
	C0.775,23.945,0,25.172,0,26.384c0,0.862,0,1.726,0,2.588c0,4.956,3.581,7.548,7.461,9.275c-0.463,0.976-1.282,1.637-2.848,1.51
	c-2.065,2.176-3.771,4.735-3.473,9.275c0.304,0.989,1.363,1.213,1.714,2.155c-1.423,2.588-0.623,7.499-1.083,10.569
	c-0.114,0.765-0.76,0.986-0.649,1.726c0.096,0.636,0.819,1.004,0.861,1.509c4.655-0.729,8.09-1.376,13.804-1.078
	c0.7-0.239,0.229-1.783,0.43-1.94c1.615,0.47,3.109,1.061,5.176,1.078c-0.248,0.604-0.248,1.122,0,1.726
	c2.602,1.002,6.614,0.265,10.137,0c2.577-0.194,6.145-0.804,6.903-1.51C38.977,62.762,38.805,62.652,38.846,62.426z M32.825,47.736
	c-0.377-1.708-0.279-3.891-0.648-5.607C34.188,42.763,33.893,46.251,32.825,47.736z M23.119,2.657
	c0.675-0.602,2.592-1.335,3.452-0.432c-0.066,2.235-1.197,3.406-3.236,3.667C22.446,5.183,23.226,3.856,23.119,2.657z M1.765,20.344
	c0.484-0.392,1.421-0.176,1.51-0.432c0.439,0.315-0.44,1.127-0.431,1.726C2.149,21.542,1.591,21.309,1.765,20.344z M8.452,39.757
	c0.288-0.36,1.223-0.073,1.51-0.433c-0.176-0.686-0.137-1.588-0.431-2.155c-5.302-0.935-9.5-6.003-7.549-12.079
	c0.9-0.539,1.554-1.323,1.726-2.589c1.052-0.601,2.578-0.729,3.236-1.726c0.031-0.606-0.528-0.622-1.079-0.647
	c4.588-3.899,15.339-3.548,21.785-1.51c-0.123,0.698,0.065,1.086,0.431,1.294c1.264-0.102,0.976-1.668,2.069-1.941
	C30.926,18.055,31,17.642,32,18.618c0,0.36,0,0.72,0,1.079c-1,0.587-1.09,0.087-1.422,0.862c5.686,3.402,2.403,12.229-2.543,14.021
	c-0.799-0.136-1.24-0.606-1.919-0.862c-1.771,1.572,0.943,2.563,1.735,3.451c2.618,2.926,3.309,7.276,3.027,13.155
	c-0.885-0.021-1.765-0.042-2.37,0.216c2.766-6.855-4.108-12.037-10.784-10.999c-4.923,0.765-7.11,5.61-7.979,10.568
	c-1.567,1.059-2.858,0.218-4.961,0.215C5.455,46.25,6.668,42.718,8.452,39.757z M21.393,53.561c-2.23,0.699-4.858,1.173-6.902,0
	c0.167-0.911,0.82-1.337,0.647-2.589c-0.126-0.736-0.706-1.021-1.725-0.862c-0.162-1.061-0.603-1.842-1.51-2.157
	c0.624-1.799,1.053-3.422,2.588-4.745c4.559-3.929,15.583-0.655,12.079,6.688c-0.528-0.191-0.234-1.206-1.079-1.08
	c-1.913,0.461-3.36,1.386-4.529,2.589C20.781,52.447,21.162,52.929,21.393,53.561z M5.001,42.129
	c-0.217,1.654-0.991,4.615-1.941,6.255C2.112,46.408,3.693,43.281,5.001,42.129z M3.923,62.835c1.401-1.045,3.623-3.911,10.47-1.082
	C13.459,63.408,5.298,61.622,3.923,62.835z M16.864,60.678c-3.785-1.22-8.826-3.294-13.373,0c-0.465-2.694,0.503-5.822,0.646-8.628
	c2.681,0.341,4.454,1.588,6.471,2.588c0.834,0.044,1.59,0.009,2.157-0.214c2.604,1.771,6.942,2.18,9.706,0.646
	c4.14,2.494,5.092-2.662,8.412-3.021c-0.523,2.425-0.565,5.329-1.294,7.55C25.061,60.958,21.897,62.3,16.864,60.678z M27.217,62.835
	c0.849-1.813,5.531-1.094,7.335-0.647C31.969,62.738,30.086,62.79,27.217,62.835z"/>
<linearGradient id="SVGID_2_" gradientUnits="userSpaceOnUse" x1="9.2544" y1="-6.4814" x2="56.0462" y2="89.0689">
	<stop  offset="0" style="stop-color:#2E45A6"/>
	<stop  offset="1" style="stop-color:#000000"/>
</linearGradient>
<path fill-rule="evenodd" clip-rule="evenodd" fill="url(#SVGID_2_)" d="M23.334,19.697c-0.471-1.058-2.961-0.034-1.941,1.078
	C21.979,20.355,23.277,20.646,23.334,19.697z"/>
<linearGradient id="SVGID_3_" gradientUnits="userSpaceOnUse" x1="-2.9722" y1="-0.4541" x2="43.7631" y2="94.9808">
	<stop  offset="0" style="stop-color:#2E45A6"/>
	<stop  offset="1" style="stop-color:#000000"/>
</linearGradient>
<path fill-rule="evenodd" clip-rule="evenodd" fill="url(#SVGID_3_)" d="M10.824,25.952c-1.168-0.917-0.123-4.047-1.078-5.177
	c-2.463-0.071-2.154,3.716-1.941,5.609C8.705,26.896,10.243,26.449,10.824,25.952z"/>
<linearGradient id="SVGID_4_" gradientUnits="userSpaceOnUse" x1="7.9238" y1="-5.7822" x2="54.6506" y2="89.6353">
	<stop  offset="0" style="stop-color:#2E45A6"/>
	<stop  offset="1" style="stop-color:#000000"/>
</linearGradient>
<path fill-rule="evenodd" clip-rule="evenodd" fill="url(#SVGID_4_)" d="M21.825,27.462c1.403,0.706,2.227-0.511,3.02-1.078
	c-0.813-1.561-0.026-4.72-1.941-5.178C20.938,21.562,21.599,25.628,21.825,27.462z"/>
<linearGradient id="SVGID_5_" gradientUnits="userSpaceOnUse" x1="1.1855" y1="-2.3301" x2="47.8641" y2="92.989">
	<stop  offset="0" style="stop-color:#2E45A6"/>
	<stop  offset="1" style="stop-color:#000000"/>
</linearGradient>
<path fill-rule="evenodd" clip-rule="evenodd" fill="url(#SVGID_5_)" d="M17.727,36.211C22.067,35.616,29.385,32,28.512,29
	c-0.288,0-0.576,0-0.863,0c-3.124,5-13.936,7.873-19.197,3.545c-0.15-1.263-0.758-3.016-2.157-2.326
	c-1.139,1.385,0.701,3.226,1.079,4.505C9.979,36.359,13.54,36.784,17.727,36.211z"/>
<linearGradient id="SVGID_6_" gradientUnits="userSpaceOnUse" x1="-2.2334" y1="-0.833" x2="44.515" y2="94.6286">
	<stop  offset="0" style="stop-color:#2E45A6"/>
	<stop  offset="1" style="stop-color:#000000"/>
</linearGradient>
<path fill-rule="evenodd" clip-rule="evenodd" fill="url(#SVGID_6_)" d="M24.628,45.364c-1.806-1.224-3.116,1.376-4.745,1.726
	c-0.166-1.676,0.331-2.689,0.216-4.313c-0.456-0.191-0.638-0.657-1.294-0.647c-0.589,1.974-0.819,5.301-0.647,7.333
	C20.973,49.079,24.227,47.424,24.628,45.364z"/>
</svg>
