<?xml version="1.0" encoding="utf-8"?>
<!-- Generator: Adobe Illustrator 15.1.0, SVG Export Plug-In  -->
<!DOCTYPE svg PUBLIC "-//W3C//DTD SVG 1.1//EN" "http://www.w3.org/Graphics/SVG/1.1/DTD/svg11.dtd" [
	<!ENTITY ns_flows "http://ns.adobe.com/Flows/1.0/">
]>
<svg version="1.1"
	 xmlns="http://www.w3.org/2000/svg" xmlns:xlink="http://www.w3.org/1999/xlink" xmlns:a="http://ns.adobe.com/AdobeSVGViewerExtensions/3.0/"
	 x="0px" y="0px" width="228px" height="74px" viewBox="-5 -7 228 74" overflow="visible" enable-background="new -5 -7 228 74"
	 xml:space="preserve">
<defs>
</defs>
<path fill-rule="evenodd" clip-rule="evenodd" fill="#D7E2F2" d="M31.309,50.778c0-0.29-0.096-0.4-0.158-0.713
	c-1.371-1.062-3.525-1.344-5.738-1.564c0.312-2.237,0.746-4.354,0.871-6.78c2.467-2.284,3.387-8.613-1.045-9.387
	c-0.383-1.355-1.35-2.126-1.912-3.303c2.236-1.342,6.264-4.666,5.217-9.04c-0.252-1.052-1.848-1.915-1.912-2.782
	c-0.002-0.022,0.639-0.842,0.695-1.217c0.547-3.698-4.488-3.458-4.883-1.391c-0.947-0.618-1.668-0.564-3.131-1.111
	c-3.652-0.438-3.555-0.213-5.547-0.453c0.533-1.887-0.643-3.514-0.348-5.737c1.213-0.526,2.24-1.237,3.65-1.564
	c2.754,3.319,7.857-2.373,4.867-5.366C21.732,0.342,20.43,0,20.812,0c-0.58,0-0.363,0-1.062,0c-1.094,0-2.295,1.104-3.029,1.934
	c0.031,1.127,0.68,0.849,0.348,2.075c-1.457,0.569-2.873,1.175-4.52,1.559c-1.395,1.869-0.27,5.046-0.348,7.646
	c-3.762,0.062-6.184,1.463-8.691,2.779c0.113-0.809-0.785-0.607-1.043-1.043c-2.23-0.289-3.219,3.202-1.32,3.999
	C0.625,19.76,0,20.753,0,21.729c0,0.695,0,1.391,0,2.086c0,3.994,2.887,6.083,6.014,7.476c-0.373,0.786-1.033,1.319-2.295,1.217
	c-1.664,1.754-3.039,3.816-2.799,7.476c0.244,0.798,1.098,0.978,1.381,1.737c-1.146,2.086-0.502,6.044-0.873,8.519
	c-0.092,0.616-0.613,0.795-0.523,1.391c0.076,0.513,0.66,0.81,0.693,1.217c3.752-0.588,6.521-1.109,11.127-0.869
	c0.564-0.193,0.184-1.438,0.346-1.564c1.303,0.379,2.506,0.855,4.172,0.869c-0.199,0.486-0.199,0.904,0,1.391
	c2.098,0.808,5.33,0.214,8.17,0c2.078-0.156,4.953-0.647,5.564-1.217C31.414,51.05,31.275,50.961,31.309,50.778z M26.457,38.939
	c-0.305-1.377-0.227-3.136-0.523-4.52C27.555,34.931,27.316,37.742,26.457,38.939z M18.633,2.606
	c0.545-0.485,2.09-1.076,2.783-0.348c-0.055,1.801-0.965,2.745-2.609,2.955C18.092,4.642,18.721,3.572,18.633,2.606z M1.424,16.861
	c0.389-0.315,1.145-0.142,1.217-0.348c0.354,0.254-0.355,0.908-0.348,1.391C1.732,17.827,1.283,17.64,1.424,16.861z M6.812,32.508
	c0.232-0.29,0.984-0.059,1.217-0.349c-0.143-0.553-0.111-1.279-0.348-1.737c-4.273-0.753-7.656-4.838-6.084-9.735
	C2.322,20.252,2.85,19.62,2.988,18.6c0.848-0.484,2.076-0.588,2.607-1.391c0.025-0.488-0.426-0.501-0.869-0.521
	c3.697-3.143,12.363-2.859,17.559-1.217c-0.1,0.562,0.051,0.875,0.346,1.043c1.02-0.082,0.891-1.345,1.773-1.564
	c0.627,0.067,0.783-0.266,1.596,0.521c0,0.29,0,0.58,0,0.869c-1,0.474-0.982,0.07-1.25,0.695c4.582,2.742,1.885,9.856-2.102,11.301
	c-0.645-0.109-1.025-0.489-1.572-0.695c-1.428,1.268,0.746,2.066,1.385,2.781c2.111,2.358,2.66,5.865,2.434,10.604
	c-0.713-0.017-1.426-0.034-1.914,0.174c2.229-5.525-3.312-9.702-8.693-8.865c-3.967,0.616-5.73,4.521-6.432,8.518
	c-1.262,0.854-2.305,0.176-3.998,0.174C4.396,37.741,5.375,34.895,6.812,32.508z M17.242,43.634c-1.797,0.563-3.914,0.945-5.562,0
	c0.135-0.734,0.66-1.078,0.521-2.087c-0.102-0.594-0.568-0.822-1.391-0.695c-0.131-0.854-0.484-1.484-1.217-1.738
	c0.502-1.45,0.848-2.758,2.086-3.824c3.674-3.167,12.559-0.528,9.736,5.39c-0.426-0.154-0.189-0.972-0.871-0.87
	c-1.541,0.371-2.707,1.116-3.65,2.086C16.75,42.736,17.057,43.124,17.242,43.634z M4.031,34.42c-0.176,1.333-0.799,3.72-1.564,5.041
	C1.703,37.869,2.977,35.349,4.031,34.42z M3.162,51.108c1.129-0.842,2.92-3.152,8.438-0.872C10.848,51.57,4.27,50.131,3.162,51.108z
	 M13.592,49.37c-3.051-0.983-7.113-2.655-10.777,0c-0.375-2.172,0.404-4.693,0.521-6.954c2.16,0.274,3.588,1.279,5.215,2.086
	c0.672,0.035,1.281,0.007,1.738-0.173c2.098,1.428,5.594,1.757,7.822,0.521c3.338,2.01,4.105-2.146,6.779-2.435
	c-0.422,1.954-0.455,4.295-1.043,6.085C20.199,49.596,17.648,50.677,13.592,49.37z M21.936,51.108
	c0.686-1.462,4.459-0.882,5.912-0.521C25.766,51.03,24.248,51.072,21.936,51.108z"/>
<path fill-rule="evenodd" clip-rule="evenodd" fill="#D7E2F2" d="M18.807,16.34c-0.379-0.853-2.387-0.027-1.564,0.869
	C17.715,16.871,18.762,17.105,18.807,16.34z"/>
<path fill-rule="evenodd" clip-rule="evenodd" fill="#D7E2F2" d="M8.725,21.382c-0.941-0.739-0.1-3.262-0.869-4.173
	c-1.984-0.058-1.736,2.995-1.564,4.521C7.016,22.143,8.256,21.782,8.725,21.382z"/>
<path fill-rule="evenodd" clip-rule="evenodd" fill="#D7E2F2" d="M17.59,22.599c1.131,0.569,1.795-0.412,2.436-0.869
	c-0.656-1.258-0.021-3.804-1.566-4.173C16.875,17.843,17.408,21.12,17.59,22.599z"/>
<path fill-rule="evenodd" clip-rule="evenodd" fill="#D7E2F2" d="M14.287,29.231C17.785,28.752,23.684,26,22.98,23
	c-0.232,0-0.465,0-0.695,0c-2.52,4-11.232,6.765-15.473,3.276c-0.121-1.018-0.611-2.221-1.738-1.666
	c-0.918,1.117,0.564,2.496,0.869,3.527C8.043,29.456,10.912,29.693,14.287,29.231z"/>
<path fill-rule="evenodd" clip-rule="evenodd" fill="#D7E2F2" d="M19.85,37.027c-1.455-0.986-2.51,1.109-3.824,1.391
	c-0.133-1.351,0.268-2.167,0.174-3.477c-0.367-0.154-0.514-0.529-1.043-0.521c-0.475,1.591-0.66,4.272-0.521,5.91
	C16.904,40.021,19.527,38.688,19.85,37.027z"/>
<text transform="matrix(1 0 0 1 190.5 53.1484)" fill="#D89F25" font-family="'BebasNeue'" font-size="20.1664">BETA</text>
<text transform="matrix(1 0 0 1 49.3086 54.019)" fill="#26315A" stroke="#1B1A5B" stroke-miterlimit="10" font-family="'KaufmannStd'" font-size="47">Scheddit</text>
<text transform="matrix(1 0 0 1 48.3086 53.019)" fill="#D9D9D9" stroke="#D9D9D9" stroke-miterlimit="10" font-family="'KaufmannStd'" font-size="47">Scheddit</text>
</svg>
