<?xml version="1.0" encoding="utf-8"?>
<!-- Generator: Adobe Illustrator 15.1.0, SVG Export Plug-In  -->
<!DOCTYPE svg PUBLIC "-//W3C//DTD SVG 1.1//EN" "http://www.w3.org/Graphics/SVG/1.1/DTD/svg11.dtd" [
	<!ENTITY ns_flows "http://ns.adobe.com/Flows/1.0/">
]>
<svg version="1.1"
	 xmlns="http://www.w3.org/2000/svg" xmlns:xlink="http://www.w3.org/1999/xlink" xmlns:a="http://ns.adobe.com/AdobeSVGViewerExtensions/3.0/"
	 x="0px" y="0px" width="235px" height="75px" viewBox="-1.964 -11.157 235 75"
	 overflow="visible" enable-background="new -1.964 -11.157 235 75" xml:space="preserve">
<defs>
</defs>
<g>
	<g>
		<path fill-rule="evenodd" clip-rule="evenodd" fill="#26315A" d="M21.428,8.329c-8.251,0-14.939,6.689-14.939,14.94
			s6.688,14.94,14.939,14.94c8.252,0,14.94-6.689,14.94-14.94S29.68,8.329,21.428,8.329z M21.38,35.063
			c-6.514,0-11.794-5.281-11.794-11.794c0-6.514,5.28-11.795,11.794-11.795c6.515,0,11.795,5.281,11.795,11.795
			C33.175,29.783,27.895,35.063,21.38,35.063z"/>
		<path fill-rule="evenodd" clip-rule="evenodd" fill="#26315A" d="M26.297,0.827L16.002,1.58l0.906,6.469l9.578-2.084L26.297,0.827
			z M18.97,5.934l-0.44-2.519l5.002-0.292l0.092,2L18.97,5.934z"/>
		<rect x="18.369" y="7.269" fill-rule="evenodd" clip-rule="evenodd" fill="#26315A" width="3" height="2"/>
		<path fill-rule="evenodd" clip-rule="evenodd" fill="#26315A" d="M13.326,12.241c-2.576-1.322-4.299-3.077-4.197-3.662
			c0.273-1.589,5.051-2.26,7.557-2.559l1.35-2.487c-0.51,0.002-1.078,0.05-1.713,0.146C12.92,4.198,5.768,5.467,5.396,8.225
			c-0.137,1.015,2.908,4.548,6.401,6.843L13.326,12.241z"/>
		<polygon fill-rule="evenodd" clip-rule="evenodd" fill="#26315A" points="22.787,13.823 21.529,26.125 20.102,13.68 
			21.529,12.063 		"/>
		<polygon fill-rule="evenodd" clip-rule="evenodd" fill="#26315A" points="27.043,20.346 19.783,24.458 26.072,18.812 
			27.52,18.967 		"/>
		<path fill-rule="evenodd" clip-rule="evenodd" fill="#26315A" d="M7.076,37.424l-6.248,2.354
			c6.925,4.358,16.117,7.131,22.899,6.536c14.045-1.234,15.118-8.036,14.854-10.914c-0.246-2.689-2.712-4.495-6.564-5.701
			l-1.188,2.34c2.586,0.728,4.235,1.966,4.235,4.049c0,0-0.214,4.84-8.937,6.341c-6.863,1.182-19.13-4.897-19.13-4.897"/>
		<circle fill-rule="evenodd" clip-rule="evenodd" fill="#26315A" cx="21.428" cy="23.269" r="1.163"/>
	</g>
</g>
<g>
	<g>
		<path fill-rule="evenodd" clip-rule="evenodd" fill="#D9D9D9" d="M20.602,7.501c-8.252,0-14.941,6.689-14.941,14.94
			s6.689,14.94,14.941,14.94c8.251,0,14.939-6.689,14.939-14.94S28.853,7.501,20.602,7.501z M20.553,34.236
			c-6.514,0-11.795-5.281-11.795-11.794c0-6.514,5.281-11.795,11.795-11.795s11.795,5.281,11.795,11.795
			C32.348,28.956,27.066,34.236,20.553,34.236z"/>
		<path fill-rule="evenodd" clip-rule="evenodd" fill="#D9D9D9" d="M25.469,0L15.174,0.752l0.907,6.469l9.578-2.084L25.469,0z
			 M18.143,5.106l-0.441-2.518l5.003-0.293l0.093,2L18.143,5.106z"/>
		<rect x="17.369" y="6.269" fill-rule="evenodd" clip-rule="evenodd" fill="#D9D9D9" width="4" height="2"/>
		<path fill-rule="evenodd" clip-rule="evenodd" fill="#D9D9D9" d="M12.499,11.414c-2.575-1.322-4.298-3.077-4.198-3.662
			c0.274-1.589,5.051-2.26,7.558-2.559l1.35-2.487c-0.511,0.002-1.077,0.05-1.712,0.146C12.094,3.371,4.941,4.64,4.568,7.398
			c-0.137,1.015,2.909,4.548,6.402,6.843L12.499,11.414z"/>
		<polygon fill-rule="evenodd" clip-rule="evenodd" fill="#D9D9D9" points="21.96,12.996 20.703,25.298 19.274,12.853 
			20.703,11.236 		"/>
		<polygon fill-rule="evenodd" clip-rule="evenodd" fill="#D9D9D9" points="26.217,19.519 18.957,23.631 25.246,17.985 
			26.693,18.14 		"/>
		<path fill-rule="evenodd" clip-rule="evenodd" fill="#D9D9D9" d="M6.25,36.597L0,38.951c6.926,4.358,16.119,7.131,22.9,6.536
			c14.045-1.234,15.118-8.036,14.855-10.914c-0.248-2.689-2.713-4.495-6.566-5.701l-1.188,2.34c2.588,0.728,4.236,1.966,4.236,4.05
			c0,0-0.213,4.839-8.936,6.341c-6.865,1.182-19.131-4.897-19.131-4.897"/>
		<circle fill-rule="evenodd" clip-rule="evenodd" fill="#D9D9D9" cx="20.601" cy="22.442" r="1.163"/>
	</g>
</g>
<text transform="matrix(1 0 0 1 198.8691 42.4175)" fill="#D89F25" font-family="'BebasNeue'" font-size="20.1664">BETA</text>
<text transform="matrix(1 0 0 1 57.6777 43.2881)" fill="#26315A" stroke="#1B1A5B" stroke-miterlimit="10" font-family="'KaufmannStd'" font-size="47">Scheddit</text>
<text transform="matrix(1 0 0 1 57.6777 42.2881)" fill="#D9D9D9" stroke="#D9D9D9" stroke-miterlimit="10" font-family="'KaufmannStd'" font-size="47">Scheddit</text>
</svg>
