<?xml version="1.0" encoding="utf-8"?>
<!-- Generator: Adobe Illustrator 15.1.0, SVG Export Plug-In  -->
<!DOCTYPE svg PUBLIC "-//W3C//DTD SVG 1.1//EN" "http://www.w3.org/Graphics/SVG/1.1/DTD/svg11.dtd" [
	<!ENTITY ns_flows "http://ns.adobe.com/Flows/1.0/">
]>
<svg version="1.1"
	 xmlns="http://www.w3.org/2000/svg" xmlns:xlink="http://www.w3.org/1999/xlink" xmlns:a="http://ns.adobe.com/AdobeSVGViewerExtensions/3.0/"
	 x="0px" y="0px" width="235px" height="75px" viewBox="-1.964 -11.157 235 75"
	 overflow="visible" enable-background="new -1.964 -11.157 235 75" xml:space="preserve">
<defs>
</defs>
<g>
	<g>
		<path fill-rule="evenodd" clip-rule="evenodd" fill="#26315A" d="M21.428,8.329c-8.251,0-14.939,6.689-14.939,14.94
			s6.688,14.94,14.939,14.94c8.252,0,14.94-6.689,14.94-14.94S29.68,8.329,21.428,8.329z M21.38,35.063
			c-6.514,0-11.794-5.281-11.794-11.794c0-6.514,5.28-11.795,11.794-11.795c6.515,0,11.795,5.281,11.795,11.795
			C33.175,29.783,27.895,35.063,21.38,35.063z"/>
		<path fill-rule="evenodd" clip-rule="evenodd" fill="#26315A" d="M26.297,0.827L16.002,1.58l0.906,6.469l9.578-2.084L26.297,0.827
			z M18.97,5.934l-0.44-2.519l5.002-0.292l0.092,2L18.97,5.934z"/>
		<rect x="18.369" y="7.269" fill-rule="evenodd" clip-rule="evenodd" fill="#26315A" width="3" height="2"/>
		<path fill-rule="evenodd" clip-rule="evenodd" fill="#26315A" d="M13.326,12.241c-2.576-1.322-4.299-3.077-4.197-3.662
			c0.273-1.589,5.051-2.26,7.557-2.559l1.35-2.487c-0.51,0.002-1.078,0.05-1.713,0.146C12.92,4.198,5.768,5.467,5.396,8.225
			c-0.137,1.015,2.908,4.548,6.401,6.843L13.326,12.241z"/>
		<polygon fill-rule="evenodd" clip-rule="evenodd" fill="#26315A" points="22.787,13.823 21.529,26.125 20.102,13.68 
			21.529,12.063 		"/>
		<polygon fill-rule="evenodd" clip-rule="evenodd" fill="#26315A" points="27.043,20.346 19.783,24.458 26.072,18.812 
			27.52,18.967 		"/>
		<path fill-rule="evenodd" clip-rule="evenodd" fill="#26315A" d="M7.076,37.424l-6.248,2.354
			c6.925,4.358,16.117,7.131,22.899,6.536c14.045-1.234,15.118-8.036,14.854-10.914c-0.246-2.689-2.712-4.495-6.564-5.701
			l-1.188,2.34c2.586,0.728,4.235,1.966,4.235,4.049c0,0-0.214,4.84-8.937,6.341c-6.863,1.182-19.13-4.897-19.13-4.897"/>
		<circle fill-rule="evenodd" clip-rule="evenodd" fill="#26315A" cx="21.428" cy="23.269" r="1.163"/>
	</g>
</g>
<g>
	<g>
		<path fill-rule="evenodd" clip-rule="evenodd" fill="#D9D9D9" d="M20.602,7.501c-8.252,0-14.941,6.689-14.941,14.94
			s6.689,14.94,14.941,14.94c8.251,0,14.939-6.689,14.939-14.94S28.853,7.501,20.602,7.501z M20.553,34.236
			c-6.514,0-11.795-5.281-11.795-11.794c0-6.514,5.281-11.795,11.795-11.795s11.795,5.281,11.795,11.795
			C32.348,28.956,27.066,34.236,20.553,34.236z"/>
		<path fill-rule="evenodd" clip-rule="evenodd" fill="#D9D9D9" d="M25.469,0L15.174,0.752l0.907,6.469l9.578-2.084L25.469,0z
			 M18.143,5.106l-0.441-2.518l5.003-0.293l0.093,2L18.143,5.106z"/>
		<rect x="17.369" y="6.269" fill-rule="evenodd" clip-rule="evenodd" fill="#D9D9D9" width="4" height="2"/>
		<path fill-rule="evenodd" clip-rule="evenodd" fill="#D9D9D9" d="M12.499,11.414c-2.575-1.322-4.298-3.077-4.198-3.662
			c0.274-1.589,5.051-2.26,7.558-2.559l1.35-2.487c-0.511,0.002-1.077,0.05-1.712,0.146C12.094,3.371,4.941,4.64,4.568,7.398
			c-0.137,1.015,2.909,4.548,6.402,6.843L12.499,11.414z"/>
		<polygon fill-rule="evenodd" clip-rule="evenodd" fill="#D9D9D9" points="21.96,12.996 20.703,25.298 19.274,12.853 
			20.703,11.236 		"/>
		<polygon fill-rule="evenodd" clip-rule="evenodd" fill="#D9D9D9" points="26.217,19.519 18.957,23.631 25.246,17.985 
			26.693,18.14 		"/>
		<path fill-rule="evenodd" clip-rule="evenodd" fill="#D9D9D9" d="M6.25,36.597L0,38.951c6.926,4.358,16.119,7.131,22.9,6.536
			c14.045-1.234,15.118-8.036,14.855-10.914c-0.248-2.689-2.713-4.495-6.566-5.701l-1.188,2.34c2.588,0.728,4.236,1.966,4.236,4.05
			c0,0-0.213,4.839-8.936,6.341c-6.865,1.182-19.131-4.897-19.131-4.897"/>
		<circle fill-rule="evenodd" clip-rule="evenodd" fill="#D9D9D9" cx="20.601" cy="22.442" r="1.163"/>
	</g>
</g>
<path fill="#D89F25" d="M206.312,31.545v0.504c0,1.453-0.443,2.38-1.432,2.844c1.189,0.464,1.652,1.533,1.652,3.026v1.15
	c0,2.179-1.148,3.349-3.367,3.349h-3.49V28.297h3.348C205.324,28.297,206.312,29.366,206.312,31.545z M201.895,30.314v3.732h0.867
	c0.828,0,1.332-0.363,1.332-1.493v-0.787c0-1.009-0.344-1.453-1.131-1.453H201.895z M201.895,36.063V40.4h1.271
	c0.746,0,1.148-0.343,1.148-1.392v-1.23c0-1.311-0.424-1.714-1.432-1.714H201.895z"/>
<path fill="#D89F25" d="M210.082,34.248h3.047v2.018h-3.047V40.4h3.832v2.017h-6.051V28.297h6.051v2.017h-3.832V34.248z"/>
<path fill="#D89F25" d="M214.639,28.297h6.857v2.017h-2.318v12.104h-2.219V30.314h-2.32V28.297z"/>
<path fill="#D89F25" d="M228.877,42.417h-2.238l-0.383-2.562h-2.725l-0.383,2.562h-2.037l2.26-14.121h3.246L228.877,42.417z
	 M223.814,37.939h2.139l-1.07-7.141L223.814,37.939z"/>
<path fill="#26315A" stroke="#1B1A5B" stroke-miterlimit="10" d="M82.492,13.962c0,4.747-9.539,9.211-13.723,9.07
	c0-0.564,0.047-1.081,0.281-1.598c3.102-0.611,11.562-3.431,11.562-7.473c0-1.316-1.27-1.786-2.303-1.786
	c-4.184,0-12.926,5.029-12.926,9.823c0,7.002,11.938,5.311,11.938,13.018c0,7.002-8.365,8.459-13.77,8.459
	c-3.336,0-8.836-0.705-8.836-4.324c0-3.431,4.137-5.217,9.213-5.217c2.443,0,4.934,0.564,7.283,1.128
	c0.047,0.329-0.234,1.598-0.469,1.598c-0.848,0-4.559-1.034-7.238-1.034c-1.975,0-6.908,0.658-6.908,3.243
	c0,2.632,4.98,2.726,6.908,2.726c4.088,0,11.938-0.752,11.938-6.345c0-6.016-11.938-5.264-11.938-12.548
	c0-6.72,8.883-12.219,14.898-12.219C80.473,10.484,82.492,11.612,82.492,13.962z"/>
<path fill="#26315A" stroke="#1B1A5B" stroke-miterlimit="10" d="M91,26.463c1.504,0,3.385,0.47,3.385,2.397
	c0,0.235-1.176,4.559-2.256,4.559c-1.082,0-1.082-0.376-1.082-0.611c0.094-0.987,1.457-2.726,1.457-3.666
	c0-0.893-0.986-1.175-1.691-1.175c-1.832,0-8.93,4.794-8.93,10.058c0,2.256,0.518,3.76,3.102,3.76c3.996,0,9.822-5.969,10.152-5.969
	c0.375,0,0.469,0.658,0.469,0.846c0,0.47-0.094,0.799-0.516,1.128c-2.445,2.068-5.922,5.687-11.279,5.687
	c-3.008,0-3.619-2.444-3.619-6.438C80.191,32.291,87.57,26.463,91,26.463z"/>
<path fill="#26315A" stroke="#1B1A5B" stroke-miterlimit="10" d="M97.957,38.729l0.094,0.094
	c2.068-2.303,11.938-12.219,14.521-12.219c0.846,0,1.176,0.47,1.176,1.081c0,0.376-5.123,11.279-5.828,13.065
	c-0.094,0.235-0.094,0.564,0.141,0.564c1.504,0,7.285-5.029,8.037-5.687c0.141-0.094,0.234,0.094,0.234,0.47
	c0,0.705,0.047,1.175-0.658,1.88c-1.268,1.269-7.002,5.499-8.977,5.499c-0.939,0-1.408-0.329-1.408-1.363
	c0-0.94,4.934-10.339,5.357-12.031c0.047-0.188,0.094-0.423-0.189-0.423c-0.188,0-4.699,3.571-7.941,6.908l-4.418,4.559
	c-0.799,0.846-2.115,2.35-2.82,2.35c-0.375,0-0.939-0.282-0.893-0.705c0.141-1.222,2.115-5.029,2.633-6.58l0.188-0.564
	c-0.658,0.658-2.49,2.491-2.68,2.491c-0.328,0-0.469-0.235-0.469-1.081c0-0.987,4.465-3.901,5.404-6.11l7.049-16.825
	c0.424-1.034,1.598-4.559,2.914-4.559c0.471,0,0.752,0.376,0.752,0.987c0,1.786-3.289,7.989-7.049,16.496L97.957,38.729z"/>
<path fill="#26315A" stroke="#1B1A5B" stroke-miterlimit="10" d="M126.203,26.463c1.926,0,3.102,0.94,3.102,2.491
	c0,4.417-4.605,8.13-10.434,8.13h-1.691c-0.189,2.162,0.047,4.7,2.914,4.7c4.84,0,10.479-6.109,10.855-6.109
	c0.281,0,0.375,0.658,0.375,0.846c0,0.705-0.328,1.034-0.752,1.363c-2.256,1.786-6.25,5.593-11.043,5.593
	c-3.619,0-4.23-2.585-4.23-6.58C115.299,32.385,122.396,26.463,126.203,26.463z M125.826,27.967c-2.49,0-7.848,4.841-8.225,7.473
	c0.471,0.094,0.893,0.141,1.363,0.141c4.324,0,8.459-3.102,8.459-6.438C127.424,28.343,126.672,27.967,125.826,27.967z"/>
<path fill="#26315A" stroke="#1B1A5B" stroke-miterlimit="10" d="M142.699,37.79l-0.188,1.739c-0.047,0.752-0.047,1.88,0.939,1.88
	c1.27,0,3.195-1.457,4.934-2.914c1.693-1.41,3.197-2.867,3.525-2.867c0.234,0,0.234,0.752,0.234,1.081
	c0,0.658-0.516,1.128-1.268,1.739c-1.834,1.598-5.781,5.029-8.271,5.029c-1.975,0-1.928-1.974-1.975-3.666
	c-1.785,1.504-3.572,3.666-6.016,3.666c-3.477,0-3.854-2.632-3.854-5.499c0-4.324,1.316-5.64,4.559-8.459
	c3.055-2.632,4.889-2.867,8.084-2.867c0.658-2.35,5.451-17.107,8.883-17.107c0.939,0,0.939,1.269,0.939,1.927
	c0,5.123-5.076,17.436-7.85,21.948L142.699,37.79z M142.793,28.061c-0.281-0.047-0.564-0.094-0.846-0.094
	c-3.102,0-9.494,4.418-9.494,10.058c0,1.645,0.236,3.572,2.209,3.572c1.834,0,3.9-2.115,5.076-3.243
	c1.316-1.363,1.27-1.974,1.598-3.431L142.793,28.061z M145.283,30.599c2.209-4.276,5.922-14.005,6.062-18.094h-0.094l-1.879,3.055
	c-2.209,4.277-5.641,13.629-6.156,18.235l0.094,0.094L145.283,30.599z"/>
<path fill="#26315A" stroke="#1B1A5B" stroke-miterlimit="10" d="M163.566,37.79l-0.188,1.739c-0.047,0.752-0.047,1.88,0.939,1.88
	c1.27,0,3.195-1.457,4.934-2.914c1.693-1.41,3.197-2.867,3.525-2.867c0.234,0,0.234,0.752,0.234,1.081
	c0,0.658-0.516,1.128-1.268,1.739c-1.834,1.598-5.781,5.029-8.271,5.029c-1.975,0-1.928-1.974-1.975-3.666
	c-1.785,1.504-3.572,3.666-6.016,3.666c-3.477,0-3.854-2.632-3.854-5.499c0-4.324,1.316-5.64,4.559-8.459
	c3.055-2.632,4.889-2.867,8.084-2.867c0.658-2.35,5.451-17.107,8.883-17.107c0.939,0,0.939,1.269,0.939,1.927
	c0,5.123-5.076,17.436-7.85,21.948L163.566,37.79z M163.66,28.061c-0.281-0.047-0.564-0.094-0.846-0.094
	c-3.102,0-9.494,4.418-9.494,10.058c0,1.645,0.236,3.572,2.209,3.572c1.834,0,3.9-2.115,5.076-3.243
	c1.316-1.363,1.27-1.974,1.598-3.431L163.66,28.061z M166.15,30.599c2.209-4.276,5.922-14.005,6.062-18.094h-0.094l-1.879,3.055
	c-2.209,4.277-5.641,13.629-6.156,18.235l0.094,0.094L166.15,30.599z"/>
<path fill="#26315A" stroke="#1B1A5B" stroke-miterlimit="10" d="M181.238,26.933l-5.875,12.877
	c-0.33,0.658-0.471,1.128-0.471,1.269c0,0.094,0.047,0.235,0.188,0.235c0.752,0,5.922-3.948,7.568-5.264
	c0.234-0.188,0.422-0.235,0.562-0.235c0.189,0,0.189,0.611,0.189,1.175c0,0.94-7.99,6.486-9.541,6.486
	c-1.035,0-1.504-0.329-1.504-1.081c0-1.316,2.256-5.64,2.82-6.909l-0.096-0.094c-0.469,0.376-2.678,2.726-3.055,2.726
	c-0.281,0-0.516-0.329-0.516-0.939c0-0.94,5.074-4.982,5.545-5.922l1.975-4.324H181.238z M180.016,22.327
	c0-0.987,0.705-2.256,1.738-2.256c0.705,0,1.082,0.705,1.082,1.316c0,1.081-0.564,2.256-1.787,2.256
	C180.297,23.644,180.016,23.032,180.016,22.327z"/>
<path fill="#26315A" stroke="#1B1A5B" stroke-miterlimit="10" d="M191.625,22.233c0.562-1.316,3.008-9.963,4.699-9.963
	c0.469,0,0.752,0.329,0.752,0.846c0,2.115-2.727,6.814-3.338,9.117h2.961c0.189,0,0.189,0.235,0.189,0.517
	c0,0.658-0.424,1.175-1.223,1.175h-2.584c-0.848,2.209-6.816,15.65-6.816,16.778c0,0.423,0.377,0.611,0.752,0.611
	c1.74,0,7.191-4.747,7.803-5.358c0.141-0.141,0.422-0.329,0.658-0.329c0.188,0,0.188,0.517,0.188,0.705
	c0,0.987-0.564,1.363-1.223,1.974c-1.785,1.645-6.625,5.169-9.164,5.169c-0.705,0-1.551-0.141-1.551-1.034
	c0-2.162,2.396-6.204,3.102-8.319l-0.094-0.094l-3.807,3.712c-0.188,0.188-0.375,0.282-0.564,0.282
	c-0.234-0.235-0.234-0.658-0.234-1.269c0-0.658,5.734-5.405,6.391-7.096l2.352-5.734h-2.914c-0.705,0-1.082-0.188-1.082-0.705
	c0-0.423,0.33-0.987,0.846-0.987H191.625z"/>
<path fill="#D9D9D9" stroke="#D9D9D9" stroke-miterlimit="10" d="M82.492,12.962c0,4.747-9.539,9.211-13.723,9.07
	c0-0.564,0.047-1.081,0.281-1.598c3.102-0.611,11.562-3.431,11.562-7.473c0-1.316-1.27-1.786-2.303-1.786
	c-4.184,0-12.926,5.029-12.926,9.823c0,7.002,11.938,5.311,11.938,13.018c0,7.002-8.365,8.459-13.77,8.459
	c-3.336,0-8.836-0.705-8.836-4.324c0-3.431,4.137-5.217,9.213-5.217c2.443,0,4.934,0.564,7.283,1.128
	c0.047,0.329-0.234,1.598-0.469,1.598c-0.848,0-4.559-1.034-7.238-1.034c-1.975,0-6.908,0.658-6.908,3.243
	c0,2.632,4.98,2.726,6.908,2.726c4.088,0,11.938-0.752,11.938-6.345c0-6.016-11.938-5.264-11.938-12.548
	c0-6.72,8.883-12.219,14.898-12.219C80.473,9.484,82.492,10.612,82.492,12.962z"/>
<path fill="#D9D9D9" stroke="#D9D9D9" stroke-miterlimit="10" d="M91,25.463c1.504,0,3.385,0.47,3.385,2.397
	c0,0.235-1.176,4.559-2.256,4.559c-1.082,0-1.082-0.376-1.082-0.611c0.094-0.987,1.457-2.726,1.457-3.666
	c0-0.893-0.986-1.175-1.691-1.175c-1.832,0-8.93,4.794-8.93,10.058c0,2.256,0.518,3.76,3.102,3.76c3.996,0,9.822-5.969,10.152-5.969
	c0.375,0,0.469,0.658,0.469,0.846c0,0.47-0.094,0.799-0.516,1.128c-2.445,2.068-5.922,5.687-11.279,5.687
	c-3.008,0-3.619-2.444-3.619-6.438C80.191,31.291,87.57,25.463,91,25.463z"/>
<path fill="#D9D9D9" stroke="#D9D9D9" stroke-miterlimit="10" d="M97.957,37.729l0.094,0.094
	c2.068-2.303,11.938-12.219,14.521-12.219c0.846,0,1.176,0.47,1.176,1.081c0,0.376-5.123,11.279-5.828,13.065
	c-0.094,0.235-0.094,0.564,0.141,0.564c1.504,0,7.285-5.029,8.037-5.687c0.141-0.094,0.234,0.094,0.234,0.47
	c0,0.705,0.047,1.175-0.658,1.88c-1.268,1.269-7.002,5.499-8.977,5.499c-0.939,0-1.408-0.329-1.408-1.363
	c0-0.94,4.934-10.339,5.357-12.031c0.047-0.188,0.094-0.423-0.189-0.423c-0.188,0-4.699,3.571-7.941,6.908l-4.418,4.559
	c-0.799,0.846-2.115,2.35-2.82,2.35c-0.375,0-0.939-0.282-0.893-0.705c0.141-1.222,2.115-5.029,2.633-6.58l0.188-0.564
	c-0.658,0.658-2.49,2.491-2.68,2.491c-0.328,0-0.469-0.235-0.469-1.081c0-0.987,4.465-3.901,5.404-6.11l7.049-16.825
	c0.424-1.034,1.598-4.559,2.914-4.559c0.471,0,0.752,0.376,0.752,0.987c0,1.786-3.289,7.989-7.049,16.496L97.957,37.729z"/>
<path fill="#D9D9D9" stroke="#D9D9D9" stroke-miterlimit="10" d="M126.203,25.463c1.926,0,3.102,0.94,3.102,2.491
	c0,4.417-4.605,8.13-10.434,8.13h-1.691c-0.189,2.162,0.047,4.7,2.914,4.7c4.84,0,10.479-6.109,10.855-6.109
	c0.281,0,0.375,0.658,0.375,0.846c0,0.705-0.328,1.034-0.752,1.363c-2.256,1.786-6.25,5.593-11.043,5.593
	c-3.619,0-4.23-2.585-4.23-6.58C115.299,31.385,122.396,25.463,126.203,25.463z M125.826,26.967c-2.49,0-7.848,4.841-8.225,7.473
	c0.471,0.094,0.893,0.141,1.363,0.141c4.324,0,8.459-3.102,8.459-6.438C127.424,27.343,126.672,26.967,125.826,26.967z"/>
<path fill="#D9D9D9" stroke="#D9D9D9" stroke-miterlimit="10" d="M142.699,36.79l-0.188,1.739c-0.047,0.752-0.047,1.88,0.939,1.88
	c1.27,0,3.195-1.457,4.934-2.914c1.693-1.41,3.197-2.867,3.525-2.867c0.234,0,0.234,0.752,0.234,1.081
	c0,0.658-0.516,1.128-1.268,1.739c-1.834,1.598-5.781,5.029-8.271,5.029c-1.975,0-1.928-1.974-1.975-3.666
	c-1.785,1.504-3.572,3.666-6.016,3.666c-3.477,0-3.854-2.632-3.854-5.499c0-4.324,1.316-5.64,4.559-8.459
	c3.055-2.632,4.889-2.867,8.084-2.867c0.658-2.35,5.451-17.107,8.883-17.107c0.939,0,0.939,1.269,0.939,1.927
	c0,5.123-5.076,17.436-7.85,21.948L142.699,36.79z M142.793,27.061c-0.281-0.047-0.564-0.094-0.846-0.094
	c-3.102,0-9.494,4.418-9.494,10.058c0,1.645,0.236,3.572,2.209,3.572c1.834,0,3.9-2.115,5.076-3.243
	c1.316-1.363,1.27-1.974,1.598-3.431L142.793,27.061z M145.283,29.599c2.209-4.276,5.922-14.005,6.062-18.094h-0.094l-1.879,3.055
	c-2.209,4.277-5.641,13.629-6.156,18.235l0.094,0.094L145.283,29.599z"/>
<path fill="#D9D9D9" stroke="#D9D9D9" stroke-miterlimit="10" d="M163.566,36.79l-0.188,1.739c-0.047,0.752-0.047,1.88,0.939,1.88
	c1.27,0,3.195-1.457,4.934-2.914c1.693-1.41,3.197-2.867,3.525-2.867c0.234,0,0.234,0.752,0.234,1.081
	c0,0.658-0.516,1.128-1.268,1.739c-1.834,1.598-5.781,5.029-8.271,5.029c-1.975,0-1.928-1.974-1.975-3.666
	c-1.785,1.504-3.572,3.666-6.016,3.666c-3.477,0-3.854-2.632-3.854-5.499c0-4.324,1.316-5.64,4.559-8.459
	c3.055-2.632,4.889-2.867,8.084-2.867c0.658-2.35,5.451-17.107,8.883-17.107c0.939,0,0.939,1.269,0.939,1.927
	c0,5.123-5.076,17.436-7.85,21.948L163.566,36.79z M163.66,27.061c-0.281-0.047-0.564-0.094-0.846-0.094
	c-3.102,0-9.494,4.418-9.494,10.058c0,1.645,0.236,3.572,2.209,3.572c1.834,0,3.9-2.115,5.076-3.243
	c1.316-1.363,1.27-1.974,1.598-3.431L163.66,27.061z M166.15,29.599c2.209-4.276,5.922-14.005,6.062-18.094h-0.094l-1.879,3.055
	c-2.209,4.277-5.641,13.629-6.156,18.235l0.094,0.094L166.15,29.599z"/>
<path fill="#D9D9D9" stroke="#D9D9D9" stroke-miterlimit="10" d="M181.238,25.933l-5.875,12.877
	c-0.33,0.658-0.471,1.128-0.471,1.269c0,0.094,0.047,0.235,0.188,0.235c0.752,0,5.922-3.948,7.568-5.264
	c0.234-0.188,0.422-0.235,0.562-0.235c0.189,0,0.189,0.611,0.189,1.175c0,0.94-7.99,6.486-9.541,6.486
	c-1.035,0-1.504-0.329-1.504-1.081c0-1.316,2.256-5.64,2.82-6.909l-0.096-0.094c-0.469,0.376-2.678,2.726-3.055,2.726
	c-0.281,0-0.516-0.329-0.516-0.939c0-0.94,5.074-4.982,5.545-5.922l1.975-4.324H181.238z M180.016,21.327
	c0-0.987,0.705-2.256,1.738-2.256c0.705,0,1.082,0.705,1.082,1.316c0,1.081-0.564,2.256-1.787,2.256
	C180.297,22.644,180.016,22.032,180.016,21.327z"/>
<path fill="#D9D9D9" stroke="#D9D9D9" stroke-miterlimit="10" d="M191.625,21.233c0.562-1.316,3.008-9.963,4.699-9.963
	c0.469,0,0.752,0.329,0.752,0.846c0,2.115-2.727,6.814-3.338,9.117h2.961c0.189,0,0.189,0.235,0.189,0.517
	c0,0.658-0.424,1.175-1.223,1.175h-2.584c-0.848,2.209-6.816,15.65-6.816,16.778c0,0.423,0.377,0.611,0.752,0.611
	c1.74,0,7.191-4.747,7.803-5.358c0.141-0.141,0.422-0.329,0.658-0.329c0.188,0,0.188,0.517,0.188,0.705
	c0,0.987-0.564,1.363-1.223,1.974c-1.785,1.645-6.625,5.169-9.164,5.169c-0.705,0-1.551-0.141-1.551-1.034
	c0-2.162,2.396-6.204,3.102-8.319l-0.094-0.094l-3.807,3.712c-0.188,0.188-0.375,0.282-0.564,0.282
	c-0.234-0.235-0.234-0.658-0.234-1.269c0-0.658,5.734-5.405,6.391-7.096l2.352-5.734h-2.914c-0.705,0-1.082-0.188-1.082-0.705
	c0-0.423,0.33-0.987,0.846-0.987H191.625z"/>
</svg>
