<?xml version="1.0" encoding="utf-8"?>
<!-- Generator: Adobe Illustrator 15.1.0, SVG Export Plug-In  -->
<!DOCTYPE svg PUBLIC "-//W3C//DTD SVG 1.1//EN" "http://www.w3.org/Graphics/SVG/1.1/DTD/svg11.dtd" [
	<!ENTITY ns_flows "http://ns.adobe.com/Flows/1.0/">
]>
<svg version="1.1"
	 xmlns="http://www.w3.org/2000/svg" xmlns:xlink="http://www.w3.org/1999/xlink" xmlns:a="http://ns.adobe.com/AdobeSVGViewerExtensions/3.0/"
	 x="0px" y="0px" width="167px" height="196px" viewBox="-1.631 -1.397 167 196"
	 overflow="visible" enable-background="new -1.631 -1.397 167 196" xml:space="preserve">
<defs>
</defs>
<g>
	<g>
		<path fill-rule="evenodd" clip-rule="evenodd" fill="#999999" d="M88.256,31.301c-34.704,0-62.835,28.133-62.835,62.835
			c0,34.706,28.132,62.835,62.835,62.835s62.833-28.129,62.833-62.835C151.089,59.434,122.959,31.301,88.256,31.301z
			 M88.053,143.743c-27.395,0-49.604-22.211-49.604-49.606s22.209-49.605,49.604-49.605c27.396,0,49.605,22.21,49.605,49.605
			S115.45,143.743,88.053,143.743z"/>
		<path fill-rule="evenodd" clip-rule="evenodd" fill="#999999" d="M108.73,1.616L65.433,4.781l3.813,27.205l40.283-8.765
			L108.73,1.616z M77.916,23.092L76.062,12.5L97.1,11.27l0.389,8.412L77.916,23.092z"/>
		<rect x="75.369" y="26.269" fill-rule="evenodd" clip-rule="evenodd" fill="#999999" width="13" height="10"/>
		<path fill-rule="evenodd" clip-rule="evenodd" fill="#999999" d="M54.181,47.754c-10.835-5.561-18.078-12.941-17.654-15.401
			c1.151-6.684,21.242-9.506,31.783-10.761l5.676-10.459c-2.146,0.01-4.534,0.212-7.202,0.616
			c-14.31,2.179-44.39,7.517-45.955,19.118c-0.575,4.268,12.23,19.129,26.924,28.78L54.181,47.754z"/>
		<path fill-rule="evenodd" clip-rule="evenodd" fill="#999999" d="M27.897,153.666l-26.281,9.903
			c29.126,18.329,67.787,29.99,96.311,27.488c59.069-5.19,63.583-33.802,62.476-45.901c-1.039-11.312-11.407-18.906-27.612-23.977
			l-4.995,9.84c10.88,3.06,17.815,8.268,17.815,17.028c0,0-0.899,20.354-37.583,26.671c-28.869,4.971-80.457-20.596-80.457-20.596"
			/>
	</g>
</g>
<g>
	<g>
		<path fill-rule="evenodd" clip-rule="evenodd" fill="#F15A24" d="M86.64,29.685c-34.703,0-62.835,28.133-62.835,62.836
			c0,34.702,28.132,62.835,62.835,62.835c34.704,0,62.833-28.133,62.833-62.835C149.473,57.818,121.344,29.685,86.64,29.685z
			 M86.438,142.123c-27.395,0-49.604-22.206-49.604-49.602s22.209-49.606,49.604-49.606c27.396,0,49.605,22.211,49.605,49.606
			S113.834,142.123,86.438,142.123z"/>
		<path fill-rule="evenodd" clip-rule="evenodd" fill="#F15A24" d="M107.115,0L63.817,3.165l3.813,27.206l40.283-8.765L107.115,0z
			 M76.3,21.476l-1.854-10.59l21.039-1.231l0.388,8.411L76.3,21.476z"/>
		<rect x="73.369" y="24.269" fill-rule="evenodd" clip-rule="evenodd" fill="#F15A24" width="17" height="8"/>
		<path fill-rule="evenodd" clip-rule="evenodd" fill="#F15A24" d="M52.565,46.139c-10.833-5.561-18.078-12.941-17.654-15.402
			c1.151-6.682,21.242-9.505,31.783-10.76L72.37,9.518c-2.146,0.01-4.532,0.212-7.202,0.616c-14.31,2.179-44.39,7.517-45.955,19.117
			c-0.575,4.268,12.233,19.129,26.925,28.78L52.565,46.139z"/>
		<path fill-rule="evenodd" clip-rule="evenodd" fill="#F15A24" d="M26.281,152.055L0,161.954
			c29.126,18.329,67.789,29.99,96.311,27.484c59.069-5.188,63.583-33.795,62.476-45.901c-1.039-11.308-11.405-18.9-27.612-23.974
			l-4.995,9.84c10.879,3.061,17.816,8.268,17.816,17.032c0,0-0.898,20.356-37.583,26.668c-28.869,4.975-80.457-20.597-80.457-20.597
			"/>
	</g>
</g>
<ellipse fill="#F15A24" cx="67.75" cy="78.272" rx="6.07" ry="7.295"/>
<g>
	<path fill="#F15A24" d="M67.821,83.418c-2.238,0-4.058-2.235-4.058-4.983c0-2.747,1.82-4.982,4.058-4.982s4.058,2.235,4.058,4.982
		C71.879,81.183,70.059,83.418,67.821,83.418z"/>
	<path fill="#FFFFFF" d="M67.821,73.703c2.103,0,3.808,2.119,3.808,4.732s-1.705,4.733-3.808,4.733c-2.103,0-3.808-2.12-3.808-4.733
		S65.718,73.703,67.821,73.703 M67.821,73.203c-2.375,0-4.308,2.348-4.308,5.232c0,2.886,1.933,5.233,4.308,5.233
		s4.308-2.348,4.308-5.233C72.129,75.55,70.196,73.203,67.821,73.203L67.821,73.203z"/>
</g>
<path fill="#F15A24" d="M115.066,79.417c0,6.125-4.765,11.084-10.641,11.084c-5.875,0-10.638-4.959-10.638-11.084
	c0-6.123,4.764-11.084,10.638-11.084C110.301,68.333,115.066,73.293,115.066,79.417z"/>
<path fill="none" stroke="#F15A24" stroke-width="5" stroke-linecap="round" stroke-miterlimit="10" d="M54.485,115.913
	c0-6.968,14.955-12.608,33.437-12.608"/>
<path fill="none" stroke="#F15A24" stroke-width="5" stroke-linecap="round" stroke-miterlimit="10" d="M120.393,115.913
	c0-6.968-14.955-12.608-33.437-12.608"/>
</svg>
